<svg width="380" height="140" viewBox="0 0 380 140" fill="none" xmlns="http://www.w3.org/2000/svg">
<g clip-path="url(#clip0_4240_17672)">
<path d="M126.42 133.646C126.42 130.375 128.989 127.778 132.316 127.778C135.643 127.778 138.212 130.375 138.212 133.628C138.212 136.88 135.671 139.45 132.298 139.45C128.925 139.45 126.411 136.88 126.411 133.646H126.42ZM135.588 133.628C135.569 131.659 134.109 130.264 132.316 130.264C130.523 130.264 129.045 131.687 129.045 133.628C129.045 135.568 130.487 136.964 132.316 136.964C134.146 136.964 135.606 135.54 135.588 133.628Z" fill="#010000"/>
<path d="M148.239 131.789C148.239 133.758 147.028 135.523 143.96 135.523H142.343V139.265H139.82V127.973H144.145C147.093 127.973 148.239 129.849 148.239 131.789ZM145.652 131.762C145.652 130.985 145.097 130.292 144.154 130.292H142.334V133.24H144.044C145.162 133.24 145.652 132.51 145.652 131.762Z" fill="#010000"/>
<path d="M149.597 127.973H157.48V130.329H152.129V132.427H157.083V134.765H152.129V136.918H157.461V139.275H149.588V127.982L149.597 127.973Z" fill="#010000"/>
<path d="M169.161 127.973V139.265H167.34L161.823 132.723V139.265H159.337V127.973H161.047L166.684 134.571V127.973H169.161Z" fill="#010000"/>
<path d="M173.976 138.332L175.011 136.317C176.046 136.927 176.905 137.13 177.561 137.13C178.642 137.13 179.243 136.613 179.243 135.892C179.243 135.171 178.642 134.7 177.718 134.7H176.267V132.436H177.441C178.439 132.436 179.003 131.946 179.003 131.271C179.003 130.551 178.374 130.144 177.598 130.144C176.924 130.144 176.332 130.375 175.426 130.985L174.234 129.164C175.14 128.342 176.498 127.769 177.922 127.769C179.973 127.769 181.563 129.035 181.563 130.708C181.563 131.965 180.675 132.861 179.668 133.231V133.295C181.119 133.619 181.886 134.765 181.886 136.077C181.886 138.064 180.186 139.459 177.746 139.459C176.351 139.459 175.131 139.043 173.985 138.341L173.976 138.332Z" fill="#010000"/>
<path d="M183.559 127.973H188.069C191.534 127.973 193.567 130.163 193.567 133.628C193.567 137.094 191.488 139.265 187.986 139.265H183.55V127.973H183.559ZM188.096 136.835C190.009 136.835 190.952 135.338 190.952 133.61C190.952 131.882 190 130.403 188.096 130.403H186.082V136.835H188.096Z" fill="#010000"/>
<path d="M198.853 127.973H206.736V130.329H201.385V132.427H206.338V134.765H201.385V136.918H206.717V139.275H198.844V127.982L198.853 127.973Z" fill="#010000"/>
<path d="M218.417 127.973V139.265H216.596L211.079 132.723V139.265H208.584V127.973H210.294L215.931 134.571V127.973H218.407H218.417Z" fill="#010000"/>
<path d="M220.034 133.628C220.034 130.19 222.677 127.778 226.041 127.778C227.935 127.778 229.571 128.545 230.551 129.534L228.933 131.363C228.185 130.661 227.159 130.199 226.032 130.199C224.045 130.199 222.622 131.668 222.622 133.591C222.622 135.513 223.962 137.01 226.013 137.01C227.159 137.01 228.231 136.52 228.823 135.938V134.635H225.949V132.463H231.114V137.213C229.737 138.59 227.963 139.413 225.967 139.413C222.502 139.413 220.034 136.954 220.034 133.609V133.628Z" fill="#010000"/>
<path d="M235.393 127.973V139.265H232.861V127.973H235.393Z" fill="#010000"/>
<path d="M247.453 127.973V139.265H245.632L240.115 132.723V139.265H237.62V127.973H239.33L244.967 134.571V127.973H247.444H247.453Z" fill="#010000"/>
<path d="M249.68 127.973H257.563V130.329H252.212V132.427H257.166V134.765H252.212V136.918H257.544V139.275H249.671V127.982L249.68 127.973Z" fill="#010000"/>
<path d="M265.381 132.594H293.132V134.599H265.381V132.594Z" fill="#010000"/>
<path d="M300.331 133.646C300.331 130.375 302.901 127.778 306.227 127.778C309.554 127.778 312.123 130.375 312.123 133.628C312.123 136.88 309.591 139.45 306.209 139.45C302.827 139.45 300.322 136.88 300.322 133.646H300.331ZM309.499 133.628C309.48 131.659 308.02 130.264 306.227 130.264C304.435 130.264 302.956 131.687 302.956 133.628C302.956 135.568 304.388 136.964 306.227 136.964C308.066 136.964 309.517 135.54 309.499 133.628Z" fill="#010000"/>
<path d="M312.4 138.332L313.435 136.317C314.47 136.927 315.33 137.13 315.986 137.13C317.067 137.13 317.668 136.613 317.668 135.892C317.668 135.171 317.076 134.7 316.143 134.7H314.692V132.436H315.866C316.855 132.436 317.428 131.946 317.428 131.271C317.428 130.551 316.799 130.144 316.023 130.144C315.348 130.144 314.757 130.375 313.851 130.985L312.659 129.164C313.565 128.342 314.923 127.769 316.346 127.769C318.398 127.769 319.987 129.035 319.987 130.708C319.987 131.965 319.1 132.861 318.093 133.231V133.295C319.544 133.619 320.311 134.765 320.311 136.077C320.311 138.064 318.611 139.459 316.171 139.459C314.775 139.459 313.556 139.043 312.41 138.341L312.4 138.332Z" fill="#010000"/>
<path d="M321.983 127.973H326.493C329.959 127.973 331.992 130.163 331.992 133.628C331.992 137.094 329.912 139.265 326.41 139.265H321.974V127.973H321.983ZM326.521 136.835C328.434 136.835 329.376 135.338 329.376 133.61C329.376 131.882 328.424 130.403 326.521 130.403H324.506V136.835H326.521Z" fill="#010000"/>
<path d="M333.655 127.973H341.538V130.329H336.187V132.427H341.141V134.765H336.187V136.918H341.52V139.275H333.646V127.982L333.655 127.973Z" fill="#010000"/>
<path d="M342.795 138.166C342.795 137.417 343.386 136.835 344.153 136.835C344.874 136.835 345.466 137.417 345.466 138.166C345.466 138.914 344.865 139.515 344.153 139.515C343.386 139.515 342.795 138.951 342.795 138.166Z" fill="#010000"/>
<path d="M345.9 133.646C345.9 130.375 348.469 127.778 351.796 127.778C355.123 127.778 357.692 130.375 357.692 133.628C357.692 136.88 355.15 139.45 351.777 139.45C348.404 139.45 345.891 136.88 345.891 133.646H345.9ZM355.067 133.628C355.049 131.659 353.589 130.264 351.796 130.264C350.003 130.264 348.524 131.687 348.524 133.628C348.524 135.568 349.957 136.964 351.796 136.964C353.635 136.964 355.086 135.54 355.067 133.628Z" fill="#010000"/>
<path d="M363.061 135.319H361.823V139.265H359.3V127.973H363.791C366.526 127.973 367.783 129.682 367.783 131.623C367.783 132.972 367.146 134.331 365.593 134.968L368.208 139.265H365.27L363.052 135.319H363.061ZM361.823 133.092H363.615C364.761 133.092 365.187 132.39 365.187 131.669C365.187 130.948 364.715 130.292 363.782 130.292H361.823V133.092Z" fill="#010000"/>
<path d="M368.911 133.628C368.911 130.19 371.554 127.778 374.917 127.778C376.812 127.778 378.448 128.545 379.427 129.534L377.81 131.363C377.061 130.661 376.036 130.199 374.908 130.199C372.921 130.199 371.498 131.668 371.498 133.591C371.498 135.513 372.838 137.01 374.89 137.01C376.036 137.01 377.108 136.52 377.699 135.938V134.635H374.825V132.463H379.991V137.213C378.614 138.59 376.84 139.413 374.844 139.413C371.378 139.413 368.911 136.954 368.911 133.609V133.628Z" fill="#010000"/>
<path d="M278.383 28.103C269.53 19.6657 257.359 15.2114 243.091 15.2114H210.931C208.538 15.2114 206.496 17.2907 206.496 19.8413V104.519C206.496 107.069 208.538 109.149 210.931 109.149H243.091C257.369 109.149 269.539 104.713 278.383 96.3311C287.338 87.8384 292.07 76.0558 292.07 62.2494C292.07 48.4429 287.338 36.6234 278.383 28.103ZM262.849 81.2863C257.997 86.4614 251.159 89.2061 243.063 89.2061H229.571C228.61 89.2061 227.834 88.4206 227.834 87.441V36.9191C227.834 35.9488 228.61 35.154 229.571 35.154H243.063C259.605 35.154 269.881 45.5412 269.881 62.2494C269.881 69.6793 267.386 76.4439 262.849 81.2863Z" fill="#010100"/>
<path d="M328.887 35.154H376.525C378.448 35.154 380 33.5738 380 31.6146V19.5086C380 17.1336 378.106 15.2114 375.176 15.2114H309.85C307.946 15.2114 305.904 17.2907 305.904 19.8413V104.519C305.904 107.069 307.946 109.149 309.85 109.149H375.176C378.106 109.149 380 107.217 380 104.852V92.7455C380 90.7956 378.448 89.2061 376.525 89.2061H328.887C327.926 89.2061 327.149 88.4206 327.149 87.441V73.6715C327.149 72.7012 327.926 71.9065 328.887 71.9065H375.98C377.902 71.9065 379.455 70.3262 379.455 68.3671V55.494C379.455 53.5441 377.902 51.9546 375.98 51.9546H328.887C327.926 51.9546 327.149 51.1691 327.149 50.1895V36.9006C327.149 35.9303 327.926 35.1356 328.887 35.1356V35.154Z" fill="#010100"/>
<path d="M186.608 65.0398C184.557 63.1731 182.025 61.6483 179.03 60.4746C178.18 60.1419 178.079 58.9591 178.864 58.4785C181.036 57.157 182.93 55.586 184.547 53.7932C188.419 49.533 190.379 44.0622 190.379 37.8983C190.379 30.4498 187.227 24.5724 181.027 20.4138C175.14 16.4771 167.128 14.481 157.212 14.481C148.192 14.481 140.18 16.2276 132.935 19.6745C131.179 20.5062 130.153 22.6502 130.948 24.8127C131.013 24.9975 131.105 25.1638 131.198 25.3394C133.111 28.7494 134.783 32.3905 136.16 36.1702C136.724 37.7134 138.184 38.7577 139.801 38.7577C140.42 38.7577 141.04 38.6006 141.594 38.3141C143.747 37.1867 145.753 36.3365 147.592 35.7913C150.373 34.9133 152.998 34.4698 155.853 34.4698C165.289 34.4698 166.499 38.4805 166.499 41.9737C166.499 45.4668 165.335 47.7772 162.858 49.1633C159.919 50.7621 155.059 51.5753 148.405 51.5753H144.154C143.849 51.5753 143.535 51.603 143.23 51.6862C141.234 52.213 140.097 54.0797 140.254 55.9649C140.43 58.0719 140.522 60.2344 140.522 62.3968C140.522 63.7183 140.485 65.1045 140.402 66.5184C140.347 67.6089 140.725 68.6993 141.465 69.4941C142.204 70.2981 143.239 70.7509 144.311 70.7509H148.257C155.548 70.7509 160.853 71.5364 164.023 73.0797C166.721 74.4104 167.932 76.4343 167.932 79.6502C167.932 83.4576 166.823 85.8141 164.438 87.4406C161.805 89.2241 157.36 90.1667 151.584 90.1667C147.638 90.1667 143.803 89.64 139.764 88.605C139.422 88.5126 139.08 88.4571 138.729 88.4571C137.168 88.4571 135.763 89.4182 135.162 90.9061C133.748 94.353 132.048 97.7446 130.098 101.007C129.442 102.097 129.331 103.409 129.793 104.602C130.246 105.775 131.253 106.644 132.445 106.995C138.914 108.899 145.91 109.86 153.7 109.86C166.046 109.86 175.75 107.328 182.533 102.337C189.575 97.1346 193.142 90.0004 193.142 80.7499C193.142 74.2164 190.942 68.9304 186.627 65.0398H186.608Z" fill="#010100"/>
<path d="M101.035 84.2984L103.955 93.3271L106.912 102.43C112.605 96.1088 116.985 88.6141 119.693 80.3247L110.341 82.2931L101.025 84.2984H101.035Z" fill="#446FE5"/>
<path d="M61.3432 122.733C70.2148 122.733 78.689 120.829 86.2853 117.438L78.5412 111.81L70.8709 106.219L66.1209 114.443L61.334 122.742" fill="#3B5AE1"/>
<path d="M88.254 98.4746L87.2652 107.938L86.2764 117.438C94.1591 113.926 101.173 108.779 106.903 102.421L97.5507 100.452L88.2355 98.4746H88.254Z" fill="#3B5AE1"/>
<path d="M21.6527 84.2985L12.3375 82.3209L2.98535 80.3433C5.68379 88.6049 10.0734 96.1273 15.766 102.448L18.7232 93.3457L21.6434 84.28L21.6527 84.2985Z" fill="#638AE9"/>
<path d="M106.912 66.1764L113.27 73.2275L119.656 80.3525C121.587 74.3919 122.65 68.0062 122.65 61.3894C122.65 59.2362 122.539 57.0738 122.317 54.9575L114.573 60.5854L106.903 66.1764H106.912Z" fill="#638AE9"/>
<path d="M104.907 47.2133L113.593 51.0854L122.317 54.9575C121.402 46.1875 118.667 37.9628 114.425 30.6992L109.638 38.9979L104.888 47.2226L104.907 47.2133Z" fill="#638AE9"/>
<path d="M34.3958 98.4746L25.0807 100.452L15.7285 102.43C21.4211 108.788 28.4722 113.907 36.355 117.447L35.3662 107.947L34.3773 98.4839L34.3958 98.4746Z" fill="#638AE9"/>
<path d="M61.3063 122.733L56.5563 114.472L51.8063 106.21L44.0991 111.801L36.355 117.429C43.9882 120.83 52.4255 122.724 61.2971 122.724" fill="#638AE9"/>
<path d="M70.8711 106.219L78.5413 111.81L86.2855 117.438L87.2743 107.938L88.2631 98.4746C83.1527 102.162 77.2753 104.87 70.8803 106.219H70.8711Z" fill="#638AE9"/>
<path d="M101.035 84.2988C97.8187 89.8528 93.4384 94.6767 88.291 98.4379V98.4749L97.6062 100.453L106.949 102.43L103.992 93.3275L101.035 84.2988Z" fill="#638AE9"/>
<path d="M79.9644 19.4715L77.0441 10.4058L74.0869 1.30322L67.7012 8.39126L61.3433 15.4793C67.9877 15.5163 74.2718 16.9024 79.9644 19.4623V19.4715Z" fill="#D4DFF8"/>
<path d="M61.3067 15.5252L54.9487 8.43715L48.563 1.34912L45.6058 10.4517L42.6855 19.4804C48.3782 16.9576 54.6992 15.5344 61.3067 15.5344V15.5252Z" fill="#D4DFF8"/>
<path d="M27.2798 30.6901C31.5492 25.9401 36.8075 22.105 42.6849 19.4712L33.9982 15.5991L25.2744 11.7271L26.2632 21.2271L27.289 30.6901H27.2798Z" fill="#D4DFF8"/>
<path d="M27.28 30.6903L17.7893 30.6533H8.21533L13.0023 38.952L17.7523 47.1767C19.7576 41.0035 23.0475 35.4126 27.28 30.6995V30.6903Z" fill="#D4DFF8"/>
<path d="M0.333008 54.9575L8.07717 60.5855L15.7844 66.1764C15.6365 64.6054 15.5256 62.9974 15.5256 61.3894C15.5256 56.4546 16.3296 51.6677 17.7528 47.2134L9.06598 51.0855L0.333008 54.9575Z" fill="#D4DFF8"/>
<path d="M27.2802 30.6901L26.2914 21.2271L25.3025 11.7271C18.3624 16.7728 12.5589 23.2416 8.25244 30.6901H27.2802Z" fill="#ACC3F3"/>
<path d="M9.05674 51.0489L17.7435 47.1768L12.9935 38.9521L8.20655 30.6904C4.02027 37.9633 1.23865 46.188 0.333008 54.9579L9.05674 51.0489Z" fill="#ACC3F3"/>
<path d="M42.6854 19.4712L45.6056 10.4425L48.5628 1.33984C40.0147 3.16961 32.0949 6.74597 25.2656 11.7178L33.9894 15.5898L42.6761 19.4619L42.6854 19.4712Z" fill="#ACC3F3"/>
<path d="M61.3433 15.4883L67.7013 8.43726L74.087 1.31226C69.9654 0.434339 65.7236 0 61.3433 0C56.9629 0 52.6935 0.471303 48.5996 1.31226L54.9853 8.43726L61.3433 15.4883Z" fill="#ACC3F3"/>
<path d="M104.907 47.2138L109.657 38.9891L114.444 30.6904H95.3789V30.7274C99.6484 35.4035 102.901 41.0314 104.907 47.2045V47.2138Z" fill="#ACC3F3"/>
<path d="M79.9644 19.4712C85.8418 22.105 91.1001 25.9401 95.3695 30.6901H95.4065L96.3953 21.2271L97.3841 11.7271L88.6604 15.5991L79.9736 19.4712H79.9644Z" fill="#ACC3F3"/>
<path d="M15.7748 66.1763L9.38912 73.2273L3.00342 80.3154L12.3556 82.293L21.6707 84.2706C18.5287 78.8645 16.4494 72.7283 15.7933 66.1855L15.7748 66.1763Z" fill="#ACC3F3"/>
<path d="M34.396 98.4749C29.2117 94.6767 24.8683 89.8528 21.6523 84.2988L18.7321 93.3275L15.7749 102.43L25.127 100.453L34.4053 98.4749H34.396Z" fill="#ACC3F3"/>
<path d="M15.7378 66.1764L8.03064 60.5854L0.332685 54.9575C0.110895 57.0738 0 59.1993 0 61.3894C0 68.0062 1.06274 74.4011 2.99416 80.3525L9.37986 73.2275L15.7378 66.1764Z" fill="#85A5EE"/>
<path d="M95.3789 30.6901H114.444C110.137 23.2324 104.287 16.7728 97.3935 11.7271L96.4047 21.2271L95.3789 30.6901Z" fill="#85A5EE"/>
<path d="M79.9648 19.4715L88.6516 15.5995L97.3753 11.7274C90.546 6.71863 82.6263 3.14227 74.0781 1.3125L77.0353 10.4151L79.9555 19.4808L79.9648 19.4715Z" fill="#85A5EE"/>
<path d="M61.3432 122.733L66.1301 114.435L70.8801 106.21C67.8121 106.866 64.5961 107.199 61.3524 107.199C58.1088 107.199 54.8928 106.866 51.8247 106.21L56.5747 114.435L61.3617 122.733" fill="#85A5EE"/>
<path d="M101.035 84.2988L110.35 82.3212L119.702 80.3436L113.279 73.2186L106.921 66.1675C106.228 72.7103 104.186 78.8465 101.044 84.2896L101.035 84.2988Z" fill="#85A5EE"/>
<path d="M107.134 61.3894C107.134 62.9974 107.06 64.6054 106.875 66.1764L114.582 60.5855L122.327 54.9575L113.603 51.0855L104.916 47.2134C106.376 51.6677 107.143 56.4177 107.143 61.3894H107.134Z" fill="#85A5EE"/>
<path d="M34.396 98.4746L35.3848 107.938L36.3736 117.438L44.1178 111.81L51.825 106.219C45.4393 104.87 39.5156 102.162 34.4052 98.4746H34.396Z" fill="#85A5EE"/>
<path d="M61.3434 15.4883C36.0409 15.4883 15.5161 36.0223 15.5161 61.3433C15.5161 86.6643 36.0409 107.198 61.3434 107.198C86.646 107.198 107.171 86.6643 107.171 61.3433C107.171 36.0223 86.646 15.4883 61.3434 15.4883ZM61.3434 91.0909C44.9495 91.0909 31.6236 77.7927 31.6236 61.3433C31.6236 44.8939 44.9125 31.5958 61.3434 31.5958C77.7744 31.5958 91.0633 44.8939 91.0633 61.3433C91.0633 77.7927 77.7374 91.0909 61.3434 91.0909Z" fill="#010100"/>
</g>
<defs>
<clipPath id="clip0_4240_17672">
<rect width="380" height="139.515" fill="white"/>
</clipPath>
</defs>
</svg>
